<svg t="1686210677089" class="icon" viewBox="0 0 1024 1024" version="1.1" xmlns="http://www.w3.org/2000/svg" p-id="4290" width="200" height="200"><path d="M512 249.5c-22.5 0-37.5-15-37.5-37.5V99.5c0-22.5 15-37.5 37.5-37.5s37.5 15 37.5 37.5V212c0 22.5-15 37.5-37.5 37.5z m0 712.5c-22.5 0-37.5-15-37.5-37.5V812c0-22.5 15-37.5 37.5-37.5s37.5 15 37.5 37.5v112.5c0 22.5-15 37.5-37.5 37.5zM212 549.5H99.5C77 549.5 62 534.5 62 512s15-37.5 37.5-37.5H212c22.5 0 37.5 15 37.5 37.5s-15 37.5-37.5 37.5z m712.5 0H812c-22.5 0-37.5-15-37.5-37.5s15-37.5 37.5-37.5h112.5c22.5 0 37.5 15 37.5 37.5s-15 37.5-37.5 37.5z m-153.75-150c-11.25 0-26.25-7.5-33.75-18.75-11.25-18.75-3.75-41.25 15-52.5L849.5 272c18.75-11.25 41.25-3.75 52.5 15s3.75 41.25-15 52.5l-97.5 56.25c-3.75 3.75-11.25 3.75-18.75 3.75z m-615 356.25c-11.25 0-26.25-7.5-33.75-18.75-11.25-18.75-3.75-41.25 15-52.5l97.5-56.25c18.75-11.25 41.25-3.75 52.5 15s3.75 41.25-15 52.5L174.5 752c-7.5 3.75-15 3.75-18.75 3.75z m506.25-465c-7.5 0-11.25 0-18.75-3.75-18.75-11.25-22.5-33.75-15-52.5L684.5 137c11.25-18.75 33.75-22.5 52.5-15 18.75 11.25 22.5 33.75 15 52.5L695.75 272c-7.5 11.25-22.5 18.75-33.75 18.75z m-356.25 615c-7.5 0-11.25 0-18.75-3.75-18.75-11.25-22.5-33.75-15-52.5l56.25-97.5c11.25-15 33.75-22.5 52.5-11.25s22.5 33.75 15 52.5L339.5 887c-7.5 11.25-22.5 18.75-33.75 18.75z m-52.5-506.25c-7.5 0-15 0-18.75-3.75L137 339.5c-18.75-11.25-26.25-33.75-15-52.5s33.75-22.5 52.5-15l97.5 56.25c18.75 11.25 22.5 33.75 11.25 52.5-3.75 11.25-18.75 18.75-30 18.75z m615 356.25c-7.5 0-11.25 0-18.75-3.75L752 695.75c-18.75-11.25-22.5-33.75-15-52.5 11.25-18.75 33.75-22.5 52.5-15L887 684.5c18.75 11.25 22.5 33.75 15 52.5-7.5 11.25-18.75 18.75-33.75 18.75zM362 290.75c-11.25 0-26.25-7.5-33.75-18.75L272 174.5c-7.5-18.75-3.75-41.25 15-52.5s41.25-3.75 52.5 15l56.25 97.5c7.5 18.75 3.75 41.25-15 48.75-7.5 3.75-11.25 7.5-18.75 7.5z m356.25 615c-11.25 0-26.25-7.5-33.75-18.75l-56.25-97.5c-11.25-18.75-3.75-41.25 15-52.5s41.25-3.75 52.5 15L752 849.5c11.25 18.75 3.75 41.25-15 52.5-7.5 3.75-11.25 3.75-18.75 3.75z" fill="#6495ED" p-id="4291"></path></svg>